HIERARCHY
ROOT Hips
{
    OFFSET 0.000000 0.000000 0.000000
    CHANNELS 6 Xposition Yposition Zposition Zrotation Xrotation Yrotation
    JOINT Spine
    {
        OFFSET -0.000000 7.246840 0.000000
        CHANNELS 3 Zrotation Xrotation Yrotation
        JOINT Spine1
        {
            OFFSET -0.000000 20.289354 0.000000
            CHANNELS 3 Zrotation Xrotation Yrotation
            JOINT Neck
            {
                OFFSET -0.000000 20.206032 1.836912
                CHANNELS 3 Zrotation Xrotation Yrotation
                JOINT Head
                {
                    OFFSET -0.000000 12.372654 -1.767522
                    CHANNELS 3 Zrotation Xrotation Yrotation
                    End Site
                    {
                        OFFSET -0.000000 22.094025 0.000000
                    }
                }
            }
            JOINT LeftShoulder
            {
                OFFSET 3.465871 17.201674 -0.568930
                CHANNELS 3 Zrotation Xrotation Yrotation
                JOINT LeftArm
                {
                    OFFSET 14.070313 0.000000 0.000000
                    CHANNELS 3 Zrotation Xrotation Yrotation
                    JOINT LeftForeArm
                    {
                        OFFSET 26.549477 0.000000 0.000000
                        CHANNELS 3 Zrotation Xrotation Yrotation
                        JOINT LeftHand
                        {
                            OFFSET 18.880413 0.000000 0.000000
                            CHANNELS 3 Zrotation Xrotation Yrotation
                            End Site
                            {
                                OFFSET 13.256415 0.000000 0.000000
                            }
                        }
                    }
                }
            }
            JOINT RightShoulder
            {
                OFFSET -3.526370 17.201674 -0.568930
                CHANNELS 3 Zrotation Xrotation Yrotation
                JOINT RightArm
                {
                    OFFSET -14.070313 0.000000 0.000000
                    CHANNELS 3 Zrotation Xrotation Yrotation
                    JOINT RightForeArm
                    {
                        OFFSET -26.549477 0.000000 0.000000
                        CHANNELS 3 Zrotation Xrotation Yrotation
                        JOINT RightHand
                        {
                            OFFSET -18.880413 0.000000 0.000000
                            CHANNELS 3 Zrotation Xrotation Yrotation
                            End Site
                            {
                                OFFSET -13.256415 0.000000 0.000000
                            }
                        }
                    }
                }
            }
        }
    }
    JOINT LeftUpLeg
    {
        OFFSET 8.837609 0.000000 0.000000
        CHANNELS 3 Zrotation Xrotation Yrotation
        JOINT LeftLeg
        {
            OFFSET -0.000000 -41.345005 0.000000
            CHANNELS 3 Zrotation Xrotation Yrotation
            JOINT LeftFoot
            {
                OFFSET -0.000000 -35.500874 0.000000
                CHANNELS 3 Zrotation Xrotation Yrotation
                JOINT LeftToeBase
                {
                    OFFSET -0.000000 -5.744446 13.256415
                    CHANNELS 3 Zrotation Xrotation Yrotation
                    End Site
                    {
                        OFFSET -0.000000 0.000000 3.535044
                    }
                }
            }
        }
    }
    JOINT RightUpLeg
    {
        OFFSET -8.837609 0.000000 0.000000
        CHANNELS 3 Zrotation Xrotation Yrotation
        JOINT RightLeg
        {
            OFFSET -0.000000 -41.345005 0.000000
            CHANNELS 3 Zrotation Xrotation Yrotation
            JOINT RightFoot
            {
                OFFSET -0.000000 -35.500874 0.000000
                CHANNELS 3 Zrotation Xrotation Yrotation
                JOINT RightToeBase
                {
                    OFFSET -0.000000 -5.744446 13.256415
                    CHANNELS 3 Zrotation Xrotation Yrotation
                    End Site
                    {
                        OFFSET -0.000000 0.000000 3.535044
                    }
                }
            }
        }
    }
}
MOTION
Frames:    11
Frame Time:    0.010000
0.847156    82.413277    -16.389645    2.356285    2.088793    -1.965598    -3.824417    -13.877151    -0.568854    1.213625    9.275988    -0.202022    0.767260    24.417171    0.900518    2.891096    -13.806547    1.747421    6.198007    6.187677    14.063303    -65.958542    19.944239    -2.826375    10.854739    -18.037777    -130.945282    8.588351    3.591787    -29.649229    -10.395106    7.700109    6.454177    82.751373    52.023258    -2.631981    -9.926008    -23.345604    59.380123    42.274765    -11.817575    16.520660    -0.296759    7.267732    0.565538    -1.567056    -9.140820    -5.128687    2.875932    0.754541    0.741459    -1.395929    -1.135583    1.967575    -8.480905    2.624524    -1.314522    6.252944    -3.853676    2.556782    1.968268    -3.296106    -6.464953    -0.508179    0.283811    0.908539    
0.836628    82.410492    -16.373030    2.345840    2.074084    -2.042154    -4.021333    -13.968918    -0.595640    1.365365    9.504754    -0.216197    0.839085    24.309654    0.957488    3.020874    -14.009160    1.850225    6.005334    6.628856    14.388235    -67.833473    21.125013    -1.518014    10.619470    -17.688148    -129.606461    7.723606    3.009675    -28.312685    -10.419176    7.760904    6.319021    82.592186    51.731209    -2.501185    -10.073294    -23.303509    59.556503    42.355686    -11.734940    16.317825    -0.289219    7.305729    0.591829    -1.563658    -9.144696    -5.088371    2.875136    0.741247    0.754921    -1.389928    -1.152656    1.959321    -8.476744    2.633781    -1.235580    6.273330    -3.859128    2.539101    1.966932    -3.291621    -6.453026    -0.521990    0.293357    0.933135    
0.825732    82.408714    -16.356998    2.326899    2.057621    -2.101436    -4.217758    -14.011750    -0.608110    1.576414    9.675331    -0.222752    0.869155    24.176582    0.978586    3.096453    -14.192266    1.897801    5.806639    7.110462    14.844262    -69.591835    22.217297    -0.499982    9.933755    -17.129169    -128.300034    6.394745    1.832893    -27.345686    -10.540278    7.859788    6.120564    82.491127    51.398296    -2.333272    -10.249771    -23.223301    59.713470    42.435429    -11.632524    16.023981    -0.278703    7.344887    0.598920    -1.538165    -9.157763    -5.065244    2.861340    0.732585    0.787334    -1.401252    -1.184973    1.975672    -8.459040    2.641000    -1.208228    6.278976    -3.850582    2.553689    1.992730    -3.279582    -6.412724    -0.506848    0.288111    0.906118    
0.812419    82.406792    -16.344271    2.318887    2.049142    -2.161957    -4.359353    -14.019353    -0.613511    1.679458    9.726586    -0.220098    0.884681    24.206512    0.990252    3.203951    -14.466291    1.947042    5.704813    7.672777    15.335396    -71.273170    23.198479    0.381519    9.897795    -16.847599    -126.597702    5.475104    1.596822    -25.391806    -10.574703    7.949234    6.079767    82.546173    50.880447    -2.380497    -10.422505    -23.132559    59.872318    42.517223    -11.482313    15.827410    -0.278667    7.370375    0.633353    -1.515923    -9.161829    -5.034010    2.882195    0.721964    0.799495    -1.394736    -1.152586    1.966097    -8.448609    2.628892    -1.167062    6.282518    -3.817068    2.566555    1.979574    -3.287879    -6.411673    -0.509575    0.262613    0.911242    
0.824624    82.414505    -16.312099    2.249784    1.980319    -2.126704    -4.350232    -14.123724    -0.584487    1.671412    10.012065    -0.191305    1.037130    24.224762    0.918304    3.171192    -14.806892    1.884489    5.739540    8.223495    15.643970    -72.971962    23.628933    1.016620    9.441608    -16.155800    -125.118904    4.741380    1.024778    -23.397228    -10.560777    8.056745    5.880069    82.418434    50.511383    -2.255149    -10.547194    -23.157383    60.027523    42.536545    -11.512580    15.579095    -0.243851    7.465623    0.552039    -1.453837    -9.175042    -4.987598    2.861852    0.721967    0.817174    -1.388173    -1.195192    1.957355    -8.401567    2.730055    -1.190312    6.302287    -3.821757    2.526937    1.985666    -3.289597    -6.351098    -0.505040    0.278952    0.902974    
0.773516    82.392120    -16.350744    2.364952    2.024008    -2.407535    -4.727571    -14.103293    -0.471049    1.924650    9.975227    -0.053784    1.189489    24.266596    0.875584    3.072668    -15.098916    1.833375    5.731217    8.822337    16.049755    -74.521866    24.201786    1.621170    9.083307    -16.006508    -123.782753    2.508392    0.484473    -21.046400    -10.480539    8.142333    5.696552    82.225807    50.219124    -2.205716    -10.549309    -23.222837    60.200706    42.530605    -11.616902    15.435765    -0.341614    7.402303    0.889302    -1.488809    -9.134144    -5.073698    2.875226    0.697913    0.851497    -1.382759    -1.187127    1.949628    -8.476765    2.505191    -0.980271    6.267644    -3.651578    2.578629    1.985657    -3.299174    -6.356510    -0.496917    0.262681    0.888605    
0.724588    82.385963    -16.358944    2.374831    2.139974    -2.447942    -5.089168    -14.250053    -0.482998    2.303204    10.031140    -0.048354    1.505569    24.312092    0.806409    2.596506    -15.373223    1.663779    5.681991    9.443260    16.371674    -76.019867    24.477682    2.164861    8.739168    -15.976356    -122.673286    0.055261    -0.072337    -18.188807    -10.434876    8.170523    5.536887    82.078255    49.972572    -2.313979    -10.544723    -23.262110    60.571510    42.535786    -11.863385    14.798512    -0.305846    7.268600    0.975168    -1.529091    -9.100849    -5.068521    2.886597    0.692203    0.813668    -1.376151    -1.189610    1.940340    -8.429573    2.336267    -0.951168    6.220376    -3.574273    2.593384    1.993386    -3.322316    -6.387371    -0.501945    0.255110    0.897670    
0.721221    82.386307    -16.348610    2.351757    2.128642    -2.447535    -5.257846    -14.299189    -0.530625    2.520220    10.180651    -0.094659    1.525234    24.232748    0.846763    2.469636    -15.549706    1.675073    5.569538    9.992895    16.823381    -77.385536    24.675135    2.727695    8.215904    -16.193207    -121.929497    -3.461990    -1.058663    -14.621422    -10.514520    8.158691    5.418410    81.924911    49.799793    -2.297390    -10.557539    -23.384682    60.744785    42.838589    -11.962774    14.691893    -0.294904    7.286238    0.992138    -1.503502    -9.093630    -5.055583    2.886775    0.677191    0.797132    -1.390347    -1.184133    1.960289    -8.401536    2.321811    -0.962171    6.212691    -3.503085    2.597318    1.988800    -3.350417    -6.369028    -0.510932    0.248971    0.913802    
0.721874    82.388077    -16.332460    2.324026    2.107584    -2.421872    -5.395232    -14.272201    -0.578530    2.642614    10.183650    -0.137904    1.706122    24.241037    0.846185    2.268777    -15.700487    1.636309    5.568134    10.409014    17.177387    -78.835327    24.413206    3.772738    7.529185    -16.552114    -121.390022    -7.180140    -2.560785    -11.584710    -10.486108    8.256762    5.298476    81.612427    49.534378    -2.194781    -10.509225    -23.486115    60.936592    43.369240    -12.041421    14.582720    -0.284356    7.320013    1.008872    -1.471140    -9.106303    -5.070669    2.887637    0.684987    0.792543    -1.387027    -1.199327    1.955791    -8.368690    2.331882    -0.988914    6.196915    -3.437794    2.595582    1.888584    -3.678530    -6.655663    -0.627566    0.506103    1.119310    
0.728902    82.396408    -16.304203    2.255639    2.042438    -2.341693    -5.290564    -14.260805    -0.586304    2.403084    10.290865    -0.139626    1.773859    24.214027    0.808509    2.519566    -15.793012    1.672927    5.689906    10.719254    17.439678    -80.001389    23.634937    4.366725    7.660183    -17.425005    -120.300194    -12.598844    -3.417148    -7.694427    -10.188631    8.297934    5.116390    81.227058    49.242783    -2.116866    -10.430980    -23.535400    61.088226    43.874584    -12.077440    14.508527    -0.233252    7.405525    0.945218    -1.453914    -9.119762    -5.020324    2.885850    0.690130    0.754177    -1.366464    -1.231951    1.927182    -8.298382    2.418734    -1.017199    6.176081    -3.401769    2.550293    1.912445    -3.718674    -6.653653    -0.641283    0.474540    1.144159    
0.721007    82.394188    -16.295464    2.245301    2.028127    -2.321794    -5.599667    -14.294391    -0.631373    2.876206    10.392002    -0.190366    1.686853    24.215359    0.755228    2.416684    -15.950062    1.585603    5.468029    11.004213    17.668760    -80.982452    22.779175    4.778514    7.716157    -18.272282    -119.056084    -19.523598    -4.572839    -4.762859    -10.345911    8.293381    5.001631    80.979889    48.883961    -2.133260    -10.295994    -23.568649    61.325157    44.372089    -12.149515    14.364838    -0.229789    7.416205    1.010686    -1.440864    -9.101126    -5.054208    2.891624    0.688047    0.721046    -1.358716    -1.234367    1.916284    -8.270832    2.407940    -1.005162    6.151850    -3.327816    2.526021    1.905456    -3.755303    -6.645712    -0.630983    0.481560    1.125698    
